<svg width="335" height="335" viewBox="0 0 335 335" fill="none" xmlns="http://www.w3.org/2000/svg">
<path d="M167.5 335C260.008 335 335 260.008 335 167.5C335 74.992 260.008 0 167.5 0C74.992 0 0 74.992 0 167.5C0 260.008 74.992 335 167.5 335Z" fill="#EBE6EF"/>
<g style="mix-blend-mode:multiply" opacity="0.5">
<path d="M259.32 307.86C239.441 320.747 217.059 329.28 193.647 332.899C170.234 336.518 146.321 335.141 123.478 328.858C100.636 322.575 79.382 311.529 61.114 296.445C42.8454 281.362 27.9763 262.582 17.484 241.342C6.99157 220.102 1.11357 196.881 0.236275 173.207C-0.641125 149.532 3.50217 125.94 12.3937 103.981C21.2852 82.023 34.7235 62.194 51.8254 45.8001C68.927 29.4058 89.305 16.8167 111.62 8.86035C77.111 31.2552 52.0264 65.541 41.1263 105.209C30.2262 144.877 34.2698 187.166 52.4896 224.05C70.709 260.934 101.837 289.844 139.964 305.294C178.091 320.743 220.564 321.657 259.32 307.86Z" fill="#EBE6EF"/>
</g>
</svg>
