<svg width="41" height="41" viewBox="0 0 41 41" fill="none" xmlns="http://www.w3.org/2000/svg">
<path d="M20.4785 17.3267L22.8401 24.9503L24.836 24.3321L23.2598 26.3051L26.1062 35.4914C28.5638 32.6695 29.5484 28.6768 28.3594 24.8399C27.1706 21.001 24.1021 18.2657 20.4785 17.3267Z" fill="#FF6969"/>
<path d="M33.336 14.4256C29.3346 12.5798 24.7793 12.997 20.7305 15.1554L32.7551 20.7026L34.0495 17.8711L34.3217 21.4256L41.0002 24.5069C39.9915 20.014 37.3373 16.2713 33.336 14.4256Z" fill="#FF6969"/>
<path d="M25.5432 8.04129L28.9055 9.83889L31.7748 8.3331L30.3084 5.53949L33.6693 7.33781L39.6287 4.20915C35.9902 1.64033 31.0761 1.15425 26.8621 3.36617C22.6481 5.57881 20.2567 9.90119 20.3054 14.3548L27.0096 10.8341L25.5432 8.04129Z" fill="#FF6969"/>
<path d="M11.6226 4.27503L9.67127 6.33464L18.5814 14.7789C19.6416 10.8668 18.484 6.40503 15.2096 3.30272C11.9355 0.199777 7.41675 -0.716237 3.56836 0.552601L8.19808 4.93992L11.6226 4.27503Z" fill="#FF6969"/>
<path d="M7.37864 11.9596C3.55595 13.0497 0.831451 16.1167 0 19.7349L4.31557 18.504L5.00488 16.418L5.50185 18.1668L9.36378 17.0659L10.1668 14.6319L10.7477 16.6719L17.7484 14.6772C15.1336 12.0415 11.2026 10.8708 7.37864 11.9596Z" fill="#FF6969"/>
<path d="M20.4844 15.9002L19.0004 15.1582C11.4295 24.5111 12.4681 40.841 12.4681 40.841H18.7037C16.4762 28.9648 19.4458 18.127 20.4844 15.9002Z" fill="#FF6969"/>
</svg>
