<svg width="41" height="36" viewBox="0 0 41 36" fill="none" xmlns="http://www.w3.org/2000/svg">
<path d="M14.7975 8.13045C14.9287 7.86792 15.1357 7.65086 15.3918 7.50743C15.6478 7.364 15.941 7.30081 16.2334 7.32606C16.5258 7.35132 16.8039 7.46384 17.0315 7.64905C17.2592 7.83426 17.4259 8.0836 17.5101 8.36473L20.8414 19.4713L23.5869 13.9876C23.7085 13.7444 23.8955 13.5399 24.1268 13.3969C24.3581 13.254 24.6246 13.1783 24.8965 13.1783C25.1684 13.1783 25.435 13.254 25.6663 13.3969C25.8976 13.5399 26.0845 13.7444 26.2062 13.9876L28.7266 19.0357H37.5818C38.9003 16.3176 39.5691 13.3303 39.5357 10.3095C39.4781 4.62531 34.9177 0 29.3699 0C24.9688 0 22.0485 2.70344 20.5 4.66741C18.9552 2.70069 16.0312 0 11.6301 0C6.08229 0 1.52195 4.62531 1.46429 10.3095C1.44063 12.2723 1.71621 14.2273 2.28155 16.1071H10.8092L14.7975 8.13045Z" fill="#FF6969"/>
<path d="M26.5116 21.1555L24.8926 17.9176L21.8094 24.0841C21.6877 24.3272 21.5008 24.5317 21.2695 24.6745C21.0382 24.8174 20.7717 24.8931 20.4998 24.8931C20.4589 24.8931 20.4168 24.8912 20.3735 24.8876C20.0804 24.8633 19.8014 24.7513 19.5729 24.5662C19.3444 24.381 19.1769 24.1314 19.0922 23.8498L15.761 12.7432L13.0154 18.2269C12.8944 18.4688 12.7087 18.6724 12.479 18.8152C12.2493 18.958 11.9845 19.0344 11.7141 19.0359H3.41797C4.27214 20.823 5.40909 22.5819 6.82884 24.3129C8.54663 26.4068 11.661 29.7545 18.8534 34.637C19.3384 34.9694 19.9127 35.1473 20.5007 35.1473C21.0887 35.1473 21.663 34.9694 22.148 34.637C29.3404 29.7545 32.4548 26.4068 34.1725 24.3129C34.7913 23.5598 35.3716 22.776 35.9114 21.9645H27.8212C27.5493 21.9645 27.2828 21.8889 27.0515 21.746C26.8202 21.6031 26.6333 21.3986 26.5116 21.1555Z" fill="#FF6969"/>
<path d="M39.5362 19.0356H37.5823C37.0955 20.0501 36.5374 21.0287 35.9121 21.9642H39.5362C39.9246 21.9642 40.297 21.8099 40.5716 21.5353C40.8462 21.2607 41.0005 20.8883 41.0005 20.4999C41.0005 20.1116 40.8462 19.7391 40.5716 19.4645C40.297 19.1899 39.9246 19.0356 39.5362 19.0356Z" fill="#FF6969"/>
<path d="M1.46429 16.1069C1.07593 16.1069 0.703486 16.2612 0.428879 16.5358C0.154272 16.8104 0 17.1829 0 17.5712C0 17.9596 0.154272 18.332 0.428879 18.6066C0.703486 18.8812 1.07593 19.0355 1.46429 19.0355H3.41819C2.96536 18.0897 2.58537 17.1106 2.28154 16.1069H1.46429Z" fill="#FF6969"/>
</svg>
