<svg width="61" height="59" viewBox="0 0 61 59" fill="none" xmlns="http://www.w3.org/2000/svg">
<path d="M29.6559 2.46977C29.9216 1.6521 31.0784 1.65211 31.3441 2.46977L37.2277 20.5777C37.5841 21.6747 38.6064 22.4174 39.7599 22.4174H58.7996C59.6594 22.4174 60.0168 23.5176 59.3213 24.0229L43.9178 35.2142C42.9846 35.8922 42.5941 37.0939 42.9506 38.191L48.8342 56.2988C49.0999 57.1165 48.164 57.7964 47.4685 57.2911L32.065 46.0998C31.1318 45.4218 29.8682 45.4218 28.935 46.0998L13.5315 57.2911C12.836 57.7964 11.9001 57.1165 12.1658 56.2988L18.0494 38.191C18.4059 37.0939 18.0154 35.8922 17.0822 35.2142L1.67873 24.0229C0.983177 23.5176 1.34065 22.4174 2.20038 22.4174H21.2401C22.3936 22.4174 23.4159 21.6747 23.7723 20.5777L29.6559 2.46977Z" fill="white" stroke="#BEBEBE" stroke-width="1.775"/>
</svg>
