<svg width="41" height="41" viewBox="0 0 41 41" fill="none" xmlns="http://www.w3.org/2000/svg">
<path fill-rule="evenodd" clip-rule="evenodd" d="M28.2586 8.13372C28.2308 7.94706 28.1938 7.76188 28.1479 7.57885L29.7476 7.60755L27.8581 5.42635L29.1729 3.60253L26.1662 3.28683L25.8204 0.528217L23.8347 1.73362L21.4574 0L21.3302 1.42817C20.9245 1.34691 20.512 1.30413 20.0982 1.30038C18.6878 1.30038 17.4059 1.79238 16.3925 2.72103C14.1553 4.77445 13.3605 8.14875 13.3599 10.4154C13.3599 10.891 13.394 11.4322 13.4924 11.9693C6.10627 15.2431 0 19.2659 0 19.2659V41L41 35.6905V13.6052C41 11.2073 32.6435 8.72002 28.2586 8.13372ZM17.3211 3.71665C18.1281 2.9766 19.093 2.65543 20.0989 2.65543C21.7006 2.65543 23.4062 3.46792 24.7442 4.69382C26.9151 6.68642 27.9046 9.59947 25.8136 11.521C24.0267 13.161 20.9066 13.8833 18.5163 13.8833C17.1257 13.8833 15.9811 13.6386 15.4898 13.1876C14.1416 11.9501 14.4805 6.32357 17.3211 3.71665ZM37.8444 34.7325L1.36667 39.4557V34.7065L37.8485 29.8986L37.8444 34.7325ZM37.8492 28.5312L1.36667 33.3391V29.2432C2.30693 31.2181 4.5879 32.4091 7.1668 32.0606C10.4352 31.6192 12.9861 28.8743 12.8569 25.899L1.36667 27.4639V26.5297L37.8539 21.8551L37.8492 28.5312ZM37.8539 20.4884L1.36667 25.1631V20.4535L37.8567 15.6545L37.8539 20.4884Z" fill="white"/>
</svg>
